<?xml version="1.0" encoding="UTF-8"?>
<svg xmlns="http://www.w3.org/2000/svg" xmlns:xlink="http://www.w3.org/1999/xlink" width="20px" height="20px" viewBox="0 0 20 20" version="1.1">
<g id="surface1">
<path style=" stroke:none;fill-rule:nonzero;fill:rgb(50.196078%,50.588235%,51.764706%);fill-opacity:1;" d="M 0.0195312 10.417969 C 0.242188 15.738281 4.625 20 10 20 C 15.375 20 19.757812 15.738281 19.980469 10.417969 C 19.992188 10.382812 20 10.351562 20 10.3125 C 20 10.289062 19.992188 10.269531 19.988281 10.25 C 19.988281 10.167969 20 10.085938 20 10 C 20 4.484375 15.515625 0 10 0 C 4.484375 0 0 4.484375 0 10 C 0 10.085938 0.0117188 10.167969 0.0117188 10.25 C 0.0078125 10.269531 0 10.289062 0 10.3125 C 0 10.351562 0.0078125 10.382812 0.0195312 10.417969 Z M 15.574219 14.214844 C 14.75 13.867188 13.867188 13.601562 12.941406 13.417969 C 13.039062 12.511719 13.097656 11.566406 13.117188 10.625 L 16.230469 10.625 C 16.171875 11.910156 15.945312 13.121094 15.574219 14.214844 Z M 16.851562 10.625 L 19.34375 10.625 C 19.226562 12.378906 18.632812 14 17.679688 15.359375 C 17.203125 15.027344 16.695312 14.726562 16.144531 14.460938 C 16.546875 13.292969 16.792969 11.996094 16.851562 10.625 Z M 7.742188 13.929688 C 8.480469 13.8125 9.234375 13.75 10 13.75 C 10.765625 13.75 11.519531 13.8125 12.257812 13.929688 C 11.824219 17.261719 10.875 19.375 10 19.375 C 9.125 19.375 8.175781 17.261719 7.742188 13.929688 Z M 8.691406 19.164062 C 6.972656 18.613281 5.519531 16.996094 4.640625 14.800781 C 5.421875 14.472656 6.257812 14.214844 7.132812 14.039062 C 7.421875 16.222656 7.945312 18.128906 8.691406 19.164062 Z M 7.671875 6.691406 C 8.433594 6.8125 9.210938 6.875 10 6.875 C 10.789062 6.875 11.566406 6.8125 12.328125 6.691406 C 12.4375 7.707031 12.5 8.8125 12.5 10 L 7.5 10 C 7.5 8.8125 7.5625 7.707031 7.671875 6.691406 Z M 12.492188 10.625 C 12.472656 11.578125 12.417969 12.476562 12.328125 13.308594 C 11.566406 13.1875 10.789062 13.125 10 13.125 C 9.210938 13.125 8.433594 13.191406 7.671875 13.308594 C 7.582031 12.476562 7.527344 11.578125 7.507812 10.625 Z M 12.867188 14.039062 C 13.742188 14.214844 14.578125 14.472656 15.359375 14.800781 C 14.480469 16.996094 13.027344 18.613281 11.308594 19.164062 C 12.054688 18.128906 12.578125 16.222656 12.867188 14.039062 Z M 13.125 10 C 13.125 8.851562 13.0625 7.691406 12.941406 6.582031 C 13.867188 6.398438 14.75 6.128906 15.574219 5.785156 C 16.003906 7.054688 16.25 8.484375 16.25 10 Z M 12.867188 5.960938 C 12.578125 3.777344 12.054688 1.871094 11.308594 0.835938 C 13.027344 1.386719 14.480469 3.003906 15.359375 5.199219 C 14.578125 5.527344 13.742188 5.785156 12.867188 5.960938 Z M 12.257812 6.070312 C 11.519531 6.1875 10.765625 6.25 10 6.25 C 9.234375 6.25 8.480469 6.1875 7.742188 6.070312 C 8.175781 2.738281 9.125 0.625 10 0.625 C 10.875 0.625 11.824219 2.738281 12.257812 6.070312 Z M 7.132812 5.960938 C 6.257812 5.785156 5.421875 5.527344 4.640625 5.199219 C 5.519531 3.003906 6.972656 1.386719 8.691406 0.835938 C 7.945312 1.871094 7.421875 3.777344 7.132812 5.960938 Z M 7.058594 6.582031 C 6.9375 7.691406 6.875 8.851562 6.875 10 L 3.75 10 C 3.75 8.484375 3.996094 7.054688 4.425781 5.785156 C 5.25 6.132812 6.132812 6.398438 7.058594 6.582031 Z M 6.882812 10.625 C 6.902344 11.566406 6.960938 12.511719 7.058594 13.417969 C 6.132812 13.601562 5.25 13.871094 4.425781 14.214844 C 4.054688 13.121094 3.828125 11.910156 3.769531 10.625 Z M 3.855469 14.460938 C 3.304688 14.726562 2.796875 15.027344 2.320312 15.363281 C 1.367188 14 0.773438 12.378906 0.65625 10.625 L 3.148438 10.625 C 3.207031 11.996094 3.453125 13.292969 3.855469 14.460938 Z M 2.695312 15.863281 C 3.125 15.5625 3.582031 15.285156 4.074219 15.046875 C 4.703125 16.601562 5.605469 17.890625 6.691406 18.761719 C 5.113281 18.164062 3.734375 17.15625 2.695312 15.863281 Z M 13.308594 18.761719 C 14.394531 17.890625 15.296875 16.597656 15.925781 15.046875 C 16.417969 15.285156 16.875 15.5625 17.304688 15.863281 C 16.265625 17.15625 14.886719 18.164062 13.308594 18.761719 Z M 16.875 10 C 16.875 8.394531 16.609375 6.882812 16.144531 5.539062 C 16.695312 5.273438 17.203125 4.972656 17.679688 4.636719 C 18.746094 6.160156 19.375 8.007812 19.375 10 Z M 17.304688 4.136719 C 16.875 4.4375 16.417969 4.714844 15.925781 4.953125 C 15.296875 3.402344 14.394531 2.109375 13.308594 1.238281 C 14.886719 1.835938 16.265625 2.84375 17.304688 4.136719 Z M 6.691406 1.238281 C 5.605469 2.109375 4.703125 3.402344 4.074219 4.953125 C 3.582031 4.714844 3.125 4.4375 2.695312 4.136719 C 3.734375 2.84375 5.113281 1.835938 6.691406 1.238281 Z M 2.320312 4.636719 C 2.796875 4.972656 3.304688 5.273438 3.855469 5.539062 C 3.390625 6.882812 3.125 8.394531 3.125 10 L 0.625 10 C 0.625 8.007812 1.253906 6.160156 2.320312 4.636719 Z M 2.320312 4.636719 "/>
</g>
</svg>
